<svg width="444" height="512" viewBox="0 0 444 512" fill="none" xmlns="http://www.w3.org/2000/svg">
    <path
        d="M212.798 1.40812C219.924 -1.32383 232.962 0.0421448 242.665 4.44363C247.365 6.56849 261.313 14.7644 273.744 22.5049C311.495 46.0301 325.594 54.6813 349.245 68.6447C361.829 75.9299 374.715 83.8222 378.051 86.0989C381.386 88.3755 390.179 93.3841 397.456 97.482C411.253 104.919 431.568 119.338 437.481 125.712C443.394 132.087 444.303 141.497 443.242 182.476C442.787 203.27 442.029 221.938 441.574 223.759C440.816 228.009 437.633 228.161 432.175 224.366C426.262 220.268 413.83 212.68 374.26 188.547C355.006 176.861 329.233 160.924 316.953 153.032C304.672 145.291 286.176 133.908 275.564 127.837C265.103 121.766 252.064 113.722 246.455 109.928C229.475 98.2409 220.985 98.6962 200.669 112.811C179.338 127.701 146.075 149.344 140.026 152.485L139.753 152.622L109.72 172.231C109.28 172.52 108.931 172.748 108.689 172.899C107.567 173.825 103.004 176.132 99.3954 178.682C87.8732 186.878 87.7216 187.94 87.7216 262.31V325.752L91.9666 330.002C94.2407 332.279 102.882 338.653 111.221 344.117C119.408 349.581 128.201 355.804 130.475 357.929C132.901 360.054 144.726 367.794 156.855 375.079C168.983 382.516 180.657 389.953 182.931 391.927C185.205 393.748 193.241 399.364 200.669 404.22C213.253 412.416 214.921 413.175 222.653 413.023C234.023 413.023 239.329 410.14 288.45 377.053C298.153 370.526 306.037 364.759 306.037 364.152C306.037 362.482 246.91 312.244 217.346 288.719C213.101 285.532 205.521 279.006 200.366 274.452C191.27 266.56 190.815 265.801 190.815 259.426C190.815 253.811 191.573 251.99 195.818 247.892C198.547 245.311 208.401 235.901 217.649 226.947C226.898 217.992 236.146 210.251 238.42 209.644C245.394 207.975 251.913 209.948 264.042 217.688C270.561 221.634 278.444 226.643 281.78 228.768C285.115 230.893 295.879 237.267 305.582 243.035C315.437 248.802 329.991 257.757 337.875 262.917C351.974 272.176 369.864 283.255 398.518 300.709C437.936 324.538 438.694 325.145 441.271 330.457C443.697 335.314 444 341.841 444 399.819C444 455.976 443.697 464.02 441.574 466.145C440.361 467.511 438.391 468.573 437.329 468.573C436.42 468.573 428.233 462.654 419.136 455.217C410.191 447.932 401.701 441.254 400.337 440.495C399.124 439.584 395.94 437.156 393.515 434.879C391.089 432.602 385.783 428.504 381.689 425.924L374.26 421.219L368.621 425.712C368.06 426.167 367.65 426.471 367.529 426.562C366.483 427.229 364.648 428.444 360.07 431.798C359.069 432.36 352.49 436.351 346.213 440.191C339.542 443.986 325.443 452.788 314.679 459.77C304.066 466.752 288.754 476.465 280.718 481.474C272.683 486.483 260.706 494.527 253.884 499.384C234.478 513.347 222.501 515.32 205.218 507.276C201.124 505.303 188.086 497.562 176.412 489.973C164.738 482.536 148.061 472.064 139.268 466.904C130.475 461.743 116.83 453.244 108.947 448.083C95.3019 439.281 67.7093 421.675 51.3357 411.657C47.2423 409.077 39.207 404.372 33.5976 401.185C14.6466 390.257 10.7048 386.766 5.39849 376.142L0.547039 366.125L0.0922155 260.185C-0.211 187.333 0.243823 152.273 1.30508 148.175C3.42759 140.738 11.9176 131.176 22.8334 124.346C32.5363 118.123 49.3648 107.196 99.0921 74.8675C120.014 61.2077 144.575 45.423 153.671 39.8073C162.919 34.0399 172.016 28.1206 174.138 26.6029C176.261 24.9333 181.415 21.4425 185.509 18.5588C189.754 15.8268 196.576 11.1218 200.669 8.23802C204.914 5.35429 210.372 2.31878 212.798 1.40812Z"
        fill="url(#paint0_linear_3255_211)" />
    <defs>
        <linearGradient id="paint0_linear_3255_211" x1="2.49406e-05" y1="37.0553" x2="444" y2="474.945"
            gradientUnits="userSpaceOnUse">
            <stop stop-color="#1F9CF0" />
            <stop offset="0.5" stop-color="#007ACC" />
            <stop offset="1" stop-color="#1177BB" />
        </linearGradient>
    </defs>
</svg>