<svg width="512" height="512" viewBox="0 0 512 512" fill="none" xmlns="http://www.w3.org/2000/svg">
<rect width="512" height="512" rx="80" fill="#0F172A"/>
<path d="M249.534 76.9901C254.541 75.0692 263.703 76.0296 270.521 79.1244C273.824 80.6185 283.625 86.3812 292.361 91.8238C318.888 108.365 328.796 114.448 345.415 124.266C354.258 129.388 363.313 134.938 365.657 136.538C368.001 138.139 374.18 141.661 379.294 144.542C388.988 149.771 403.264 159.909 407.419 164.391C411.574 168.874 412.213 175.49 411.467 204.304C411.148 218.924 410.615 232.05 410.295 233.331C409.763 236.319 407.526 236.426 403.69 233.758C399.535 230.876 390.8 225.54 362.994 208.572C349.464 200.355 331.353 189.15 322.723 183.601C314.094 178.158 301.097 170.154 293.639 165.885C286.288 161.617 277.126 155.961 273.185 153.293C261.253 145.076 255.287 145.396 241.011 155.32C226.021 165.789 202.648 181.007 198.397 183.216L198.205 183.312L177.1 197.1C176.791 197.303 176.546 197.463 176.376 197.57C175.588 198.221 172.381 199.843 169.845 201.636C161.749 207.398 161.642 208.145 161.642 260.437V305.045L164.625 308.033C166.223 309.633 172.296 314.116 178.155 317.957C183.908 321.799 190.087 326.175 191.685 327.669C193.39 329.163 201.699 334.605 210.222 339.728C218.745 344.957 226.948 350.186 228.546 351.573C230.144 352.854 235.791 356.802 241.011 360.217C249.853 365.98 251.025 366.514 256.459 366.407C264.449 366.407 268.177 364.379 302.695 341.115C309.513 336.526 315.053 332.471 315.053 332.044C315.053 330.87 273.504 295.547 252.73 279.006C249.747 276.765 244.42 272.176 240.798 268.974C234.406 263.425 234.086 262.891 234.086 258.409C234.086 254.461 234.619 253.18 237.602 250.299C239.519 248.485 246.444 241.868 252.943 235.572C259.442 229.275 265.94 223.833 267.538 223.406C272.439 222.232 277.02 223.619 285.543 229.062C290.124 231.837 295.664 235.358 298.007 236.852C300.351 238.346 307.915 242.829 314.733 246.884C321.658 250.939 331.885 257.235 337.425 260.864C347.333 267.373 359.904 275.164 380.039 287.436C407.739 304.191 408.271 304.618 410.082 308.353C411.787 311.768 412 316.357 412 357.123C412 396.608 411.787 402.264 410.295 403.758C409.443 404.718 408.058 405.466 407.312 405.466C406.673 405.466 400.92 401.304 394.528 396.074C388.243 390.952 382.277 386.256 381.318 385.723C380.466 385.083 378.228 383.375 376.524 381.774C374.819 380.174 371.09 377.292 368.214 375.478L362.994 372.17L359.031 375.329C358.637 375.649 358.349 375.862 358.264 375.926C357.529 376.396 356.239 377.25 353.022 379.608C352.319 380.003 347.695 382.809 343.285 385.509C338.597 388.177 328.689 394.367 321.125 399.276C313.668 404.185 302.908 411.015 297.262 414.536C291.615 418.058 283.199 423.714 278.405 427.129C264.768 436.947 256.352 438.334 244.207 432.678C241.331 431.291 232.169 425.848 223.965 420.513C215.762 415.283 204.043 407.92 197.864 404.292C191.685 400.663 182.097 394.687 176.557 391.059C166.969 384.869 147.58 372.49 136.074 365.447C133.197 363.632 127.551 360.324 123.609 358.083C110.292 350.399 107.522 347.945 103.794 340.475L100.384 333.431L100.065 258.943C99.8517 207.719 100.171 183.067 100.917 180.186C102.409 174.956 108.375 168.233 116.045 163.431C122.863 159.056 134.689 151.372 169.632 128.641C184.334 119.037 201.593 107.938 207.985 103.99C214.484 99.9343 220.876 95.7723 222.367 94.7051C223.859 93.5312 227.481 91.0768 230.357 89.0491C233.34 87.1282 238.134 83.82 241.011 81.7924C243.994 79.7647 247.829 77.6304 249.534 76.9901Z" fill="url(#paint0_linear_3257_278)"/>
<defs>
<linearGradient id="paint0_linear_3257_278" x1="100" y1="102.055" x2="412.185" y2="409.758" gradientUnits="userSpaceOnUse">
<stop stop-color="#1F9CF0"/>
<stop offset="0.5" stop-color="#007ACC"/>
<stop offset="1" stop-color="#1177BB"/>
</linearGradient>
</defs>
</svg>
